<?xml version="1.0" encoding="UTF-8" standalone="no"?>
<svg
   width="64"
   height="60"
   viewBox="0 0 63.999997 60"
   id="svg4160"
   version="1.1"
   sodipodi:docname="flow+.svg"
   inkscape:version="1.3 (0e150ed6c4, 2023-07-21)"
   xmlns:inkscape="http://www.inkscape.org/namespaces/inkscape"
   xmlns:sodipodi="http://sodipodi.sourceforge.net/DTD/sodipodi-0.dtd"
   xmlns="http://www.w3.org/2000/svg"
   xmlns:svg="http://www.w3.org/2000/svg"
   xmlns:rdf="http://www.w3.org/1999/02/22-rdf-syntax-ns#"
   xmlns:cc="http://creativecommons.org/ns#"
   xmlns:dc="http://purl.org/dc/elements/1.1/">
  <sodipodi:namedview
     pagecolor="#bfbfbf"
     bordercolor="#ffffff"
     borderopacity="1"
     objecttolerance="10"
     gridtolerance="10"
     guidetolerance="10"
     inkscape:pageopacity="0"
     inkscape:pageshadow="2"
     inkscape:window-width="1920"
     inkscape:window-height="1017"
     id="namedview12"
     showgrid="false"
     inkscape:zoom="7.4010512"
     inkscape:cx="16.957051"
     inkscape:cy="25.199123"
     inkscape:window-x="-8"
     inkscape:window-y="-8"
     inkscape:window-maximized="1"
     inkscape:current-layer="svg4160"
     inkscape:document-rotation="0"
     inkscape:pagecheckerboard="false"
     inkscape:snap-bbox="true"
     inkscape:snap-bbox-edge-midpoints="true"
     inkscape:snap-bbox-midpoints="true"
     inkscape:bbox-nodes="true"
     inkscape:bbox-paths="true"
     inkscape:object-paths="true"
     inkscape:snap-intersection-paths="true"
     inkscape:showpageshadow="2"
     inkscape:deskcolor="#d1d1d1" />
  <defs
     id="defs4162" />
  <metadata
     id="metadata4165">
    <rdf:RDF>
      <cc:Work
         rdf:about="">
        <dc:format>image/svg+xml</dc:format>
        <dc:type
           rdf:resource="http://purl.org/dc/dcmitype/StillImage" />
        <dc:title />
      </cc:Work>
    </rdf:RDF>
  </metadata>
  <g
     id="g963"
     transform="matrix(2.4,0,0,2.4,-44.8,-81.006459)"
     style="stroke-width:0.416667"><rect
   style="opacity:0.998;fill:#839496;fill-opacity:1;stroke:none;stroke-width:0.833333;stroke-linecap:round;stroke-linejoin:round;stroke-miterlimit:4;stroke-dasharray:none;stop-color:#000000"
   id="rect1033"
   width="12.5"
   height="4.5"
   x="25.75"
   y="43.336697" />
<rect
   style="opacity:0.998;fill:#93a1a1;fill-opacity:1;stroke:none;stroke-width:0.833333;stroke-linecap:round;stroke-linejoin:round;stroke-miterlimit:4;stroke-dasharray:none;stop-color:#000000"
   id="rect1035"
   width="6.25"
   height="4.5"
   x="28.893887"
   y="43.336697" />
X&#10;      <path
   style="fill:#ccc5bc;fill-opacity:1;stroke:none;stroke-width:0.416664px;stroke-linecap:butt;stroke-linejoin:miter;stroke-opacity:1"
   d="m 28.875,47.836698 h 6.25 l -2.084227,2.5 h -2.081546 z"
   id="path1037" />
<rect
   style="opacity:0.998;fill:#657b83;fill-opacity:1;stroke:none;stroke-width:0.833333;stroke-linecap:round;stroke-linejoin:round;stroke-miterlimit:4;stroke-dasharray:none;stop-color:#000000"
   id="rect1039"
   width="8"
   height="2.5"
   x="28.018887"
   y="40.836697" />
<rect
   style="opacity:0.998;fill:#586e75;fill-opacity:1;stroke:none;stroke-width:0.833333;stroke-linecap:round;stroke-linejoin:round;stroke-miterlimit:4;stroke-dasharray:none;stop-color:#000000"
   id="rect1055"
   width="11.25"
   height="2.5"
   x="26.393887"
   y="38.336697"
   ry="0.83333331"
   rx="0.83333331" />
<rect
   style="opacity:0.998;fill:#586e75;fill-opacity:1;stroke:none;stroke-width:0.833333;stroke-linecap:round;stroke-linejoin:round;stroke-miterlimit:4;stroke-dasharray:none;stop-color:#000000"
   id="rect1065"
   width="11.25"
   height="2.5"
   x="26.393887"
   y="37.123924" />
</g>
  <path
     id="rect841"
     style="opacity:0.998;fill:#005cff;fill-opacity:1;stroke-width:2.00002;stroke-linecap:round;stroke-linejoin:round;stop-color:#000000"
     d="m 7.4257809,31.637385 c -2.1045266,0.260356 -3.9078698,5.051278 -3.3679682,9.909376 -0.065561,0.219223 -0.1125,0.44561 -0.1125,0.686718 v 7.2 c 0,1.3296 1.0704,2.4 2.4000002,2.4 h 8.3250001 c 1.050748,0.08893 2.168741,0.111912 3.414843,0 h 27.829688 c 1.246103,0.111912 2.364096,0.08893 3.414843,0 h 8.325 c 1.3296,0 2.4,-1.0704 2.4,-2.4 v -7.2 c 0,-0.241108 -0.04694,-0.467495 -0.1125,-0.686718 0.539902,-4.858098 -1.263441,-9.64902 -3.367968,-9.909376 -0.465491,-0.05759 -0.944997,0.106896 -1.415625,0.541407 -7.469794,6.896545 -17.186719,7.654687 -17.186719,7.654687 H 26.028124 c 0,0 -9.716924,-0.758142 -17.1867175,-7.654687 C 8.3707785,31.744281 7.8912705,31.5798 7.4257809,31.637385 Z" />
</svg>
